<?xml version="1.0" encoding="utf-8"?>
<!-- Generator: Adobe Illustrator 18.1.1, SVG Export Plug-In . SVG Version: 6.00 Build 0)  -->
<svg version="1.1" id="Layer_1" xmlns="http://www.w3.org/2000/svg" xmlns:xlink="http://www.w3.org/1999/xlink" x="0px" y="0px"
	viewBox="0 0 470.3 660.8" enable-background="new 0 0 470.3 660.8" xml:space="preserve">
<polygon fill="#EF5446" points="241.3,249.1 200.6,249.1 164.9,194.1 164.9,249.1 130.6,249.1 130.6,124.6 164.9,124.6 164.9,177.1 
	197.7,124.6 237.5,124.6 197.7,184.9 "/>
<g>
	<defs>
		<rect id="SVGID_1_" width="470.3" height="660.8"/>
	</defs>
	<clipPath id="SVGID_2_">
		<use xlink:href="#SVGID_1_"  overflow="visible"/>
	</clipPath>
	<path clip-path="url(#SVGID_2_)" fill="#EF5446" d="M313.4,249.1L293.3,211h-12.4v38.1h-34.3V124.6h53.9c13.5,0,24.6,4.1,33.3,12.3
		c8.7,8.2,13,18.8,13,31.8c0,7.5-1.7,14.3-5.2,20.4c-3.5,6.1-8.3,11-14.6,14.8l24.8,45.3H313.4z M280.9,155v27.1h15.6
		c4.7,0,8.4-1.3,11.1-3.8c2.7-2.5,4-5.8,4-9.8c0-4-1.3-7.3-4-9.8c-2.7-2.5-6.4-3.8-11.1-3.8H280.9z"/>
	<polygon clip-path="url(#SVGID_2_)" fill="#663287" points="164.7,362.9 211.7,362.9 211.7,392.7 130.6,392.7 130.6,268.1 
		210.3,268.1 210.3,297.8 164.7,297.8 164.7,316.2 205.6,316.2 205.6,344.3 164.7,344.3 	"/>
	<polygon clip-path="url(#SVGID_2_)" fill="#663287" points="320.4,268.1 320.4,299 286.5,299 286.5,392.7 252.1,392.7 252.1,299 
		218.2,299 218.2,268.1 	"/>
	<path clip-path="url(#SVGID_2_)" fill="#FCB03E" d="M213.1,536.2l-6.9-20.2h-44.1l-6.9,20.2h-36.7l48.9-124.6H201l49.9,124.6H213.1
		z M197.9,489.2l-13.8-38.6l-13.6,38.6H197.9z"/>
	<path clip-path="url(#SVGID_2_)" fill="#663287" d="M300.7,489.5c-2.9-1.2-6.1-1.9-9.4-1.9c-6.6,0-12.5,2.6-16.9,6.8l11.5,17.4
		L300.7,489.5z"/>
	<path clip-path="url(#SVGID_2_)" fill="#663287" d="M291.3,536.2c3.5,0,6.8-0.8,9.8-2.1L286,511.8l-11.8,17.3
		C278.6,533.5,284.6,536.2,291.3,536.2"/>
	<path clip-path="url(#SVGID_2_)" fill="#FCB03E" d="M298.7,511.8l10.9,16.1c3.8-4.3,6.1-9.9,6.1-16c0-6.3-2.4-12-6.3-16.3
		L298.7,511.8z"/>
	<path clip-path="url(#SVGID_2_)" fill="#EF5446" d="M274.2,529.2l11.8-17.3v0l-11.5-17.4c-4.6,4.4-7.5,10.6-7.5,17.5
		C267,518.7,269.7,524.8,274.2,529.2"/>
</g>
</svg>
